<?xml version="1.0" encoding="utf-8"?>
<!-- Generator: Adobe Illustrator 17.0.0, SVG Export Plug-In . SVG Version: 6.00 Build 0)  -->
<!DOCTYPE svg PUBLIC "-//W3C//DTD SVG 1.1//EN" "http://www.w3.org/Graphics/SVG/1.1/DTD/svg11.dtd">
<svg version="1.1" id="Layer_1" xmlns="http://www.w3.org/2000/svg" xmlns:xlink="http://www.w3.org/1999/xlink" x="0px" y="0px"
	 width="395.965px" height="145.324px" viewBox="0 0 395.965 145.324" enable-background="new 0 0 395.965 145.324"
	 xml:space="preserve">
<path fill="#ffffff" d="M37.834,57.695c3.733-1.422,7.048-3.535,9.852-6.281c2.853-2.694,5.089-5.912,6.648-9.568
	c1.559-3.657,2.323-7.558,2.271-11.593v-0.085c0.053-4.035-0.712-7.935-2.271-11.594c-1.56-3.658-3.797-6.904-6.647-9.65
	c-2.852-2.74-6.193-4.84-9.933-6.242c-3.746-1.399-7.717-2.109-11.802-2.109h-10.75c-1.763,0-3.458,0.34-5.039,1.009
	C8.582,2.251,7.198,3.187,6.05,4.362C4.9,5.537,3.978,6.934,3.308,8.516c-0.67,1.578-1.009,3.274-1.009,5.041v46.287h23.813
	C30.152,59.845,34.096,59.122,37.834,57.695z M28.1,28.817c0.374-0.375,0.828-0.565,1.352-0.565c0.521,0,0.975,0.19,1.351,0.565
	c0.375,0.378,0.565,0.832,0.565,1.351c0,0.521-0.19,0.976-0.566,1.351c-0.374,0.375-0.828,0.565-1.35,0.565
	c-0.524,0-0.978-0.19-1.352-0.566c-0.375-0.372-0.565-0.826-0.565-1.35C27.535,29.647,27.725,29.193,28.1,28.817z"/>
<path fill="#ffffff" d="M108.254,38.388l-2.341-3.01l0.062-0.077c1.507-1.885,2.637-3.967,3.358-6.19
	c0.725-2.224,1.065-4.442,1.013-6.594v-0.083c0-1.501-0.15-3.041-0.447-4.577c-0.294-1.523-0.798-3.034-1.497-4.49
	c-1.076-2.256-2.505-4.243-4.246-5.904c-1.743-1.662-3.636-2.971-5.626-3.889c-1.993-0.913-4.012-1.567-5.997-1.944
	c-1.995-0.377-4.042-0.567-6.083-0.567H72.931c-1.762,0-3.458,0.34-5.039,1.009c-1.579,0.67-2.976,1.604-4.155,2.78
	c-1.18,1.183-2.116,2.581-2.782,4.155c-0.667,1.578-1.006,3.274-1.006,5.041v32.325c0,1.768,0.339,3.463,1.006,5.039
	c0.667,1.578,1.604,2.977,2.782,4.154c1.178,1.178,2.575,2.114,4.155,2.784c1.572,0.668,3.268,1.006,5.039,1.006
	c2.731,0,5.214-0.772,7.379-2.296c2.169-1.526,3.756-3.522,4.718-5.929l0.081-0.203l2.66,3.429c1.283,1.605,2.844,2.854,4.637,3.709
	c1.792,0.856,3.679,1.29,5.605,1.29c1.397,0,2.78-0.23,4.112-0.686c1.335-0.452,2.639-1.144,3.874-2.058
	c1.39-1.124,2.516-2.454,3.345-3.95c0.83-1.498,1.346-3.085,1.533-4.717c0.186-1.629,0.063-3.299-0.363-4.961
	C110.082,41.325,109.322,39.779,108.254,38.388z M87.024,23.824c-0.347,0.349-0.786,0.525-1.308,0.525
	c-1.271,0-1.916-0.645-1.916-1.916c0-0.521,0.176-0.961,0.522-1.309c0.35-0.35,0.818-0.526,1.394-0.526
	c0.521,0,0.961,0.177,1.309,0.526c0.349,0.347,0.525,0.787,0.525,1.309C87.551,23.01,87.374,23.479,87.024,23.824z"/>
<path fill="#ffffff" d="M163.293,51.9c0.67-1.576,1.009-3.271,1.009-5.039c0-1.872-0.352-3.608-1.048-5.162
	c-0.688-1.534-1.652-2.933-2.868-4.158h-20.291c-0.118,0.413-0.327,0.758-0.621,1.026c-0.32,0.291-0.719,0.438-1.183,0.438
	c-0.523,0-0.978-0.19-1.352-0.566c-0.375-0.371-0.565-0.825-0.565-1.35c0-0.523,0.19-0.977,0.566-1.351
	c0.375-0.375,0.829-0.565,1.351-0.565c1.061,0,1.672,0.492,1.817,1.465h20.136c1.18-1.987,1.777-4.191,1.777-6.551
	c0-1.178-0.148-2.317-0.441-3.387c-0.272-0.99-0.651-1.944-1.128-2.841h-20.357c-0.117,0.413-0.326,0.759-0.621,1.027
	c-0.319,0.291-0.717,0.438-1.183,0.438c-0.521,0-0.974-0.176-1.348-0.522c-0.378-0.345-0.569-0.813-0.569-1.394
	c0-0.525,0.191-0.968,0.569-1.314c0.373-0.345,0.826-0.52,1.348-0.52c1.059,0,1.67,0.466,1.817,1.385h19.952
	c1.211-1.22,2.19-2.634,2.911-4.204c0.721-1.577,1.087-3.326,1.087-5.199c0-1.763-0.34-3.459-1.009-5.041
	c-0.671-1.58-1.608-2.978-2.783-4.152c-1.175-1.176-2.572-2.112-4.152-2.783c-1.582-0.669-3.278-1.009-5.039-1.009h-23.208
	c-1.763,0-3.458,0.34-5.039,1.009c-1.581,0.67-2.979,1.607-4.155,2.783c-1.177,1.177-2.113,2.574-2.783,4.152
	c-0.668,1.573-1.006,3.27-1.006,5.041v46.287h36.435c1.767,0,3.462-0.339,5.039-1.007c1.58-0.671,2.978-1.607,4.152-2.783
	C161.684,54.881,162.621,53.482,163.293,51.9z"/>
<path fill="#ffffff" d="M178.695,51.136c0.481,1.34,1.146,2.562,1.975,3.63c0.829,1.069,1.793,2.006,2.865,2.782
	c1.072,0.777,2.252,1.374,3.507,1.773c2.541,0.816,5.338,0.826,8.188-0.119c2.515-0.857,4.603-2.404,6.207-4.6l0.101-0.138
	l0.101,0.138c1.605,2.195,3.695,3.743,6.212,4.6c2.845,0.945,5.641,0.936,8.186,0.119c1.256-0.4,2.436-0.997,3.507-1.773
	c1.07-0.776,2.034-1.713,2.865-2.782c0.828-1.07,1.492-2.292,1.976-3.631l11.48-33.464c0.589-1.661,0.819-3.37,0.685-5.082
	c-0.134-1.714-0.567-3.342-1.289-4.839c-0.724-1.498-1.727-2.841-2.985-3.993c-1.257-1.149-2.735-2.031-4.395-2.62
	c-1.554-0.535-3.116-0.784-4.636-0.728c-1.522,0.054-2.986,0.366-4.352,0.928c-1.367,0.563-2.644,1.351-3.795,2.341
	c-1.129,0.972-2.077,2.127-2.821,3.435c0.901,1.13,1.604,2.463,2.087,3.964l0.602,1.812c0.053-0.017,0.11-0.024,0.175-0.024
	c0.576,0,1.045,0.191,1.394,0.569c0.347,0.376,0.522,0.829,0.522,1.347c0,0.517-0.176,0.971-0.522,1.347
	c-0.349,0.378-0.817,0.569-1.394,0.569c-0.523,0-0.978-0.19-1.352-0.566c-0.375-0.375-0.565-0.829-0.565-1.35
	c0-0.665,0.32-1.204,0.951-1.603l-0.62-1.859c-0.374-1.283-0.996-2.474-1.852-3.544c-1.499-2.089-3.588-3.607-6.212-4.519
	c-1.393-0.427-2.724-0.645-3.951-0.645c-2.031,0-3.957,0.46-5.723,1.368c-1.754,0.906-3.235,2.142-4.405,3.673L191.33,7.76
	c-0.828,1.1-1.434,2.295-1.802,3.554l-0.699,1.866c0.63,0.399,0.949,0.938,0.949,1.601c0,0.519-0.19,0.973-0.565,1.35
	c-0.376,0.376-0.83,0.566-1.351,0.566s-0.977-0.19-1.353-0.565c-0.374-0.377-0.563-0.831-0.563-1.351c0-0.52,0.189-0.974,0.563-1.35
	c0.376-0.376,0.831-0.566,1.353-0.566c0.083,0,0.164,0.013,0.248,0.039l0.609-1.906c0.485-1.403,1.192-2.715,2.103-3.901
	c-0.723-1.257-1.621-2.363-2.677-3.295c-1.153-1.019-2.443-1.819-3.832-2.381c-1.392-0.562-2.885-0.888-4.439-0.968
	c-1.541-0.08-3.118,0.149-4.676,0.686c-1.714,0.59-3.205,1.471-4.434,2.619c-1.228,1.147-2.218,2.49-2.943,3.994
	c-0.725,1.503-1.159,3.132-1.29,4.839c-0.136,1.71,0.095,3.42,0.684,5.081L178.695,51.136z"/>
<path fill="#ffffff" d="M48.211,95.96c-0.806-1.77-1.894-3.43-3.234-4.934l-0.731-0.729c-1.233-1.234-2.513-2.242-3.802-2.994
	c-1.282-0.749-2.593-1.432-3.896-2.029c-2.118-0.847-4.322-1.521-6.548-2.006c-0.302,0.743-0.875,1.119-1.707,1.119
	c-0.523,0-0.978-0.191-1.351-0.566c-0.375-0.373-0.566-0.827-0.566-1.35c0-0.521,0.191-0.975,0.566-1.351
	c0.378-0.375,0.832-0.565,1.351-0.565s0.973,0.19,1.35,0.565c0.371,0.371,0.562,0.819,0.566,1.332
	c2.345,0.486,4.592,1.166,6.681,2.021c1.364,0.601,2.739,1.314,4.089,2.125c1.36,0.817,2.684,1.865,3.934,3.114
	c0.27,0.269,0.49,0.51,0.658,0.718l1.042-0.966c1.695-2.337,2.563-4.942,2.563-7.726c0-1.871-0.421-3.729-1.25-5.524
	c-0.831-1.791-2.092-3.323-3.746-4.553c-2.577-1.934-5.512-3.503-8.723-4.665c-3.202-1.156-6.653-1.743-10.258-1.743
	c-2.902,0-5.711,0.437-8.348,1.298c-2.634,0.859-5.113,2.194-7.372,3.969c-1.129,0.914-2.178,1.937-3.116,3.036
	c-0.938,1.099-1.769,2.363-2.467,3.76c-0.697,1.338-1.256,2.795-1.659,4.334c-0.403,1.528-0.608,3.119-0.608,4.73v0.245
	c0,1.237,0.137,2.6,0.407,4.05c0.265,1.442,0.753,2.883,1.453,4.281c0.216,0.487,0.447,0.949,0.69,1.377
	c0.255,0.456,0.507,0.881,0.77,1.3c0.644,1.019,1.512,2.022,2.582,2.984c1.233,1.181,2.514,2.162,3.808,2.917
	c1.293,0.755,2.604,1.41,3.894,1.947c1.008,0.427,2.043,0.78,3.078,1.053c1.078,0.286,2.193,0.568,3.066,0.786
	c0.302-0.741,0.875-1.116,1.705-1.116c0.519,0,0.973,0.19,1.35,0.565c0.378,0.378,0.569,0.832,0.569,1.351
	c0,0.521-0.191,0.976-0.569,1.352c-0.373,0.375-0.827,0.565-1.35,0.565s-0.977-0.19-1.351-0.566
	c-0.371-0.369-0.562-0.817-0.565-1.333c-1.055-0.265-2.091-0.545-3.084-0.833c-1.032-0.299-2.105-0.67-3.188-1.103
	c-1.299-0.54-2.646-1.199-4.006-1.962c-1.36-0.762-2.684-1.755-3.934-2.951c-0.941-0.942-1.82-1.975-2.615-3.071L3.465,99.09
	c-1.174,1.226-2.056,2.608-2.617,4.107C0.285,104.7,0,106.246,0,107.794c0,1.714,0.326,3.383,0.97,4.961
	c0.64,1.579,1.642,3.002,2.98,4.229c2.798,2.693,6.101,4.864,9.818,6.452c3.713,1.587,7.724,2.392,11.92,2.392h0.163
	c2.896,0,5.774-0.437,8.553-1.297c2.765-0.859,5.367-2.249,7.736-4.131c2.364-1.884,4.27-4.28,5.663-7.124
	c1.397-2.789,2.105-5.811,2.105-8.982v-0.163c0-1.24-0.123-2.576-0.364-3.969C49.303,98.772,48.855,97.358,48.211,95.96z"/>
<path fill="#ffffff" d="M94.238,68.333c-1.879-0.913-3.965-1.649-6.201-2.188c-2.242-0.539-4.602-0.812-7.016-0.812h-0.08
	c-4.141,0-8.069,0.845-11.673,2.512c-3.603,1.668-6.741,3.905-9.326,6.65c-2.584,2.799-4.603,6.032-6.002,9.609
	c-1.397,3.578-2.106,7.384-2.106,11.313v0.161c0,3.878,0.695,7.671,2.067,11.274c1.373,3.605,3.378,6.851,5.96,9.649
	c2.581,2.797,5.758,5.061,9.446,6.729c3.686,1.669,7.682,2.516,11.877,2.516c2.363,0,4.683-0.246,6.896-0.732
	c2.208-0.484,4.28-1.193,6.158-2.107c1.88-0.912,3.544-1.921,4.946-2.997c1.409-1.086,2.611-2.098,3.572-3.007
	c1.283-1.227,2.273-2.651,2.943-4.232c0.667-1.576,1.02-3.218,1.05-4.88c0.025-1.662-0.26-3.318-0.848-4.922
	c-0.589-1.604-1.511-3.069-2.741-4.353c-0.908-0.961-2.011-1.797-3.28-2.487H83.084c-0.148,0.973-0.759,1.465-1.82,1.465
	c-0.52,0-0.975-0.19-1.351-0.565c-0.376-0.374-0.566-0.829-0.566-1.351c0-0.521,0.19-0.975,0.566-1.351
	c0.376-0.375,0.831-0.565,1.351-0.565c0.464,0,0.863,0.148,1.183,0.44c0.293,0.266,0.503,0.611,0.624,1.026h17.62
	c0.44-0.277,0.828-0.537,1.184-0.792c0.368-0.264,0.717-0.585,1.044-0.964c1.284-1.23,2.274-2.655,2.944-4.233
	c0.668-1.581,1.035-3.211,1.09-4.843c0.051-1.632-0.22-3.273-0.808-4.878c-0.59-1.608-1.512-3.073-2.741-4.354
	c-1.181-1.234-2.546-2.449-4.057-3.61C97.846,70.3,96.127,69.25,94.238,68.333z"/>
<path fill="#ffffff" d="M157.834,69.694c-1.182-1.179-2.579-2.114-4.152-2.779c-1.578-0.67-3.274-1.009-5.041-1.009
	c-1.503,0-2.941,0.244-4.274,0.725c-1.338,0.482-2.559,1.146-3.631,1.976c-1.07,0.831-2.02,1.85-2.822,3.025
	c-0.803,1.177-1.398,2.474-1.77,3.854v5.247c1.027,0.146,1.548,0.759,1.548,1.821c0,0.518-0.191,0.973-0.566,1.35
	c-0.376,0.376-0.83,0.566-1.351,0.566c-0.579,0-1.048-0.191-1.393-0.57c-0.347-0.373-0.523-0.826-0.523-1.346
	c0-0.466,0.146-0.877,0.436-1.222c0.268-0.321,0.614-0.521,1.029-0.597v-5.201c-0.325-1.286-0.855-2.515-1.568-3.621
	c-0.778-1.207-1.729-2.266-2.822-3.146c-1.098-0.882-2.359-1.588-3.751-2.098c-1.393-0.507-2.857-0.765-4.354-0.765
	c-1.768,0-3.463,0.339-5.039,1.009c-1.575,0.665-2.973,1.6-4.155,2.78c-1.183,1.186-2.118,2.584-2.78,4.155
	c-0.67,1.576-1.009,3.271-1.009,5.039v33.304c0,1.768,0.339,3.463,1.009,5.039c0.663,1.575,1.599,2.973,2.781,4.154
	c1.178,1.18,2.576,2.116,4.154,2.783c1.573,0.668,3.269,1.007,5.039,1.007c1.495,0,2.96-0.258,4.354-0.766
	c1.385-0.505,2.647-1.21,3.751-2.098c1.093-0.879,2.043-1.938,2.822-3.144c0.704-1.092,1.229-2.303,1.56-3.602l0.013-0.051
	l-0.004-5.184c-0.415-0.12-0.761-0.345-1.029-0.667c-0.289-0.345-0.436-0.755-0.436-1.22c0-0.522,0.191-0.965,0.569-1.313
	c0.374-0.347,0.827-0.522,1.347-0.522c0.518,0,0.971,0.176,1.347,0.522c0.378,0.351,0.569,0.793,0.569,1.313
	c0,1.062-0.521,1.698-1.548,1.896v5.252c0.372,1.381,0.968,2.664,1.77,3.813c0.806,1.154,1.756,2.173,2.825,3.027
	c1.074,0.859,2.296,1.537,3.629,2.016c1.336,0.48,2.774,0.725,4.274,0.725c1.77,0,3.466-0.339,5.041-1.007
	c1.576-0.667,2.974-1.604,4.152-2.783s2.114-2.577,2.783-4.154c0.67-1.581,1.009-3.276,1.009-5.039V78.889
	c0-1.763-0.339-3.458-1.009-5.039C159.949,72.276,159.013,70.877,157.834,69.694z"/>
<path fill="#ffffff" d="M274.913,103.719l-2.341-3.01l0.062-0.077c1.504-1.879,2.634-3.961,3.357-6.188
	c0.725-2.221,1.066-4.44,1.013-6.596v-0.083c0-1.5-0.15-3.04-0.446-4.578c-0.295-1.529-0.799-3.039-1.495-4.488
	c-1.073-2.253-2.503-4.24-4.248-5.906c-1.751-1.668-3.643-2.975-5.624-3.886c-1.985-0.912-4.003-1.566-5.997-1.944
	c-1.999-0.377-4.046-0.568-6.083-0.568h-13.518c-1.768,0-3.464,0.339-5.041,1.007c-1.577,0.67-2.975,1.605-4.155,2.783
	c-1.177,1.179-2.112,2.576-2.78,4.154c-0.67,1.577-1.009,3.272-1.009,5.039v32.326c0,1.769,0.339,3.465,1.009,5.041
	c0.67,1.582,1.605,2.979,2.78,4.152c1.179,1.179,2.576,2.115,4.155,2.783c1.576,0.67,3.273,1.009,5.041,1.009
	c2.728,0,5.209-0.773,7.377-2.298c2.171-1.529,3.759-3.524,4.72-5.93l0.081-0.203l2.658,3.432c1.291,1.609,2.852,2.857,4.636,3.706
	c1.793,0.858,3.68,1.293,5.606,1.293c1.391,0,2.775-0.23,4.114-0.686c1.337-0.456,2.64-1.149,3.872-2.06
	c1.39-1.12,2.516-2.45,3.344-3.949c0.829-1.495,1.345-3.082,1.533-4.718c0.188-1.632,0.065-3.301-0.363-4.962
	C276.74,106.655,275.98,105.108,274.913,103.719z M253.685,89.156c-0.349,0.349-0.789,0.525-1.31,0.525
	c-1.271,0-1.916-0.645-1.916-1.916c0-0.521,0.177-0.961,0.525-1.311c0.35-0.349,0.817-0.525,1.391-0.525
	c0.521,0,0.961,0.177,1.311,0.525c0.348,0.348,0.523,0.789,0.523,1.311C254.209,88.342,254.032,88.81,253.685,89.156z"/>
<path fill="#ffffff" d="M330.129,69.694c-1.181-1.178-2.578-2.113-4.152-2.779c-1.579-0.67-3.275-1.009-5.042-1.009
	c-2.942,0-5.574,0.867-7.821,2.578c-2.229,1.7-3.771,3.904-4.579,6.552l3.646,4.517c0.884-0.35,1.646-0.159,2.255,0.56
	c0.293,0.409,0.425,0.874,0.398,1.391c-0.033,0.527-0.283,0.97-0.744,1.314c-0.396,0.342-0.864,0.493-1.392,0.431
	c-0.522-0.056-0.935-0.293-1.227-0.704c-0.666-0.829-0.688-1.648-0.06-2.434l-3.356-4.154l-4.316-5.292
	c-1.179-1.446-2.643-2.613-4.354-3.47c-1.712-0.854-3.611-1.288-5.645-1.288c-1.769,0-3.465,0.339-5.041,1.009
	c-1.577,0.666-2.974,1.602-4.153,2.78c-1.179,1.18-2.115,2.578-2.782,4.155c-0.668,1.571-1.006,3.267-1.006,5.039v33.304
	c0,1.772,0.338,3.468,1.006,5.039c0.668,1.581,1.605,2.979,2.782,4.154c1.176,1.178,2.573,2.114,4.153,2.783
	c1.573,0.668,3.27,1.007,5.041,1.007c1.494,0,2.959-0.258,4.355-0.766c1.386-0.505,2.647-1.211,3.75-2.098
	c1.096-0.882,2.046-1.939,2.823-3.144c0.636-0.988,1.125-2.071,1.455-3.222l-3.705-4.417c-0.328,0.141-0.692,0.174-1.089,0.092
	c-0.434-0.086-0.802-0.306-1.09-0.652c-0.349-0.462-0.493-0.958-0.435-1.479c0.057-0.524,0.293-0.937,0.702-1.227
	c0.453-0.342,0.936-0.489,1.431-0.432c0.489,0.06,0.914,0.293,1.262,0.694c0.291,0.354,0.424,0.766,0.395,1.229
	c-0.027,0.425-0.165,0.806-0.412,1.134l7.699,9.481v0.081c1.231,1.436,2.715,2.591,4.411,3.434c1.708,0.856,3.605,1.29,5.642,1.29
	c1.77,0,3.466-0.339,5.042-1.007c1.578-0.669,2.976-1.605,4.152-2.783c1.178-1.178,2.113-2.575,2.783-4.154
	c0.669-1.583,1.009-3.278,1.009-5.039V78.889c0-1.761-0.34-3.456-1.009-5.039C332.243,72.274,331.307,70.875,330.129,69.694z"/>
<path fill="#ffffff" d="M388.099,74.737c-1.288-1.395-2.747-2.703-4.337-3.889c-1.592-1.188-3.351-2.195-5.227-2.998
	c-3.771-1.67-7.835-2.517-12.084-2.517c-4.251,0-8.315,0.847-12.081,2.516c-2.8,1.239-5.322,2.875-7.498,4.862
	c-2.181,1.991-4.022,4.229-5.474,6.65c-2.96,4.952-4.461,10.383-4.461,16.14v0.08c0,3.822,0.669,7.547,1.987,11.07
	c1.314,3.519,3.293,6.779,5.88,9.692c2.689,2.904,5.908,5.195,9.565,6.808c3.716,1.723,7.779,2.596,12.081,2.596
	c4.301,0,8.365-0.873,12.08-2.595c2.802-1.24,5.325-2.863,7.502-4.824c2.177-1.962,4.019-4.186,5.472-6.609
	c2.959-4.948,4.46-10.378,4.46-16.138v-0.08c0-3.822-0.668-7.548-1.986-11.072C392.657,80.903,390.679,77.642,388.099,74.737z
	 M367.803,96.851c-0.377,0.376-0.832,0.566-1.352,0.566c-0.522,0-0.977-0.19-1.351-0.566c-0.375-0.375-0.565-0.829-0.565-1.35
	c0-0.522,0.19-0.977,0.566-1.351c0.373-0.375,0.827-0.565,1.35-0.565c0.52,0,0.975,0.19,1.351,0.565
	c0.376,0.377,0.566,0.831,0.566,1.351C368.368,96.019,368.178,96.473,367.803,96.851z"/>
<path fill="#ffffff" d="M215.763,74.737c-1.288-1.395-2.747-2.703-4.337-3.889c-1.592-1.188-3.351-2.195-5.227-2.998
	c-3.771-1.67-7.835-2.517-12.084-2.517c-4.251,0-8.315,0.847-12.081,2.516c-2.8,1.239-5.322,2.875-7.498,4.862
	c-2.181,1.991-4.022,4.229-5.474,6.65c-2.96,4.952-4.461,10.383-4.461,16.14v0.08c0,3.822,0.669,7.547,1.987,11.07
	c1.314,3.519,3.293,6.779,5.88,9.692c2.689,2.904,5.908,5.195,9.565,6.808c3.716,1.723,7.779,2.596,12.081,2.596
	c4.301,0,8.365-0.873,12.08-2.595c2.802-1.24,5.325-2.863,7.502-4.824c2.177-1.962,4.019-4.186,5.472-6.609
	c2.959-4.948,4.46-10.378,4.46-16.138v-0.08c0-3.822-0.668-7.548-1.986-11.072C220.321,80.903,218.343,77.642,215.763,74.737z
	 M195.467,96.851c-0.377,0.376-0.832,0.566-1.352,0.566c-0.522,0-0.977-0.19-1.351-0.566c-0.375-0.375-0.565-0.829-0.565-1.35
	c0-0.522,0.19-0.977,0.566-1.351c0.373-0.375,0.827-0.565,1.35-0.565c0.52,0,0.975,0.19,1.351,0.565
	c0.376,0.377,0.566,0.831,0.566,1.351C196.032,96.019,195.842,96.473,195.467,96.851z"/>
</svg>
