<?xml version="1.0" encoding="utf-8"?>
<!-- Generator: Adobe Illustrator 17.0.0, SVG Export Plug-In . SVG Version: 6.00 Build 0)  -->
<!DOCTYPE svg PUBLIC "-//W3C//DTD SVG 1.1//EN" "http://www.w3.org/Graphics/SVG/1.1/DTD/svg11.dtd">
<svg version="1.1" id="Layer_1" xmlns="http://www.w3.org/2000/svg" xmlns:xlink="http://www.w3.org/1999/xlink" x="0px" y="0px"
	 width="517.085px" height="780.819px" viewBox="0 0 517.085 780.819" enable-background="new 0 0 517.085 780.819"
	 xml:space="preserve">
<g>
	
		<rect x="80.574" y="335.691" transform="matrix(0.7071 0.7071 -0.7071 0.7071 261.1561 40.8989)" fill="#00CEA6" width="1.269" height="0.004"/>
	
		<rect x="86.604" y="323.695" transform="matrix(0.7071 0.7071 -0.7071 0.7071 258.6587 34.8696)" fill="#00CEA6" width="1.269" height="11.936"/>
	<path fill="#00CEA6" d="M22.46,393.544c-0.248,0.248-0.248,0.649,0,0.897c0.124,0.124,0.286,0.186,0.448,0.186
		s0.325-0.062,0.448-0.186l51.293-51.293l-0.897-0.897L22.46,393.544z"/>
	
		<rect x="111.591" y="265.948" transform="matrix(0.7071 -0.7071 0.7071 0.7071 -153.5411 162.4822)" fill="#008A95" width="15.545" height="1.269"/>
	<path fill="#008A95" d="M331.928,54.916c0.248-0.248,0.248-0.649,0-0.897c-0.124-0.124-0.286-0.186-0.448-0.186
		s-0.325,0.062-0.448,0.186L128.897,256.153l0.897,0.897L331.928,54.916z"/>
	<polygon fill="#008A95" points="97.108,289.735 109.831,277.012 108.934,276.115 96.211,288.838 97.106,289.737 	"/>
	
		<rect x="103.304" y="360.122" transform="matrix(0.7071 -0.7071 0.7071 0.7071 -229.6723 181.239)" fill="#008A95" width="1.269" height="15.472"/>
	
		<rect x="118.742" y="375.543" transform="matrix(0.7071 -0.7071 0.7071 0.7071 -236.0668 196.6766)" fill="#008A95" width="1.269" height="15.506"/>
	<path fill="#008A95" d="M516.899,779.922L129.792,392.815l-0.897,0.897l387.107,387.107c0.124,0.124,0.286,0.186,0.448,0.186
		s0.325-0.062,0.448-0.186C517.147,780.571,517.147,780.169,516.899,779.922z"/>
	<path fill="#00CEA6" d="M144.311,378.296l269.761,269.761c0.124,0.124,0.286,0.186,0.448,0.186c0.162,0,0.325-0.062,0.449-0.186
		c0.248-0.248,0.248-0.649,0-0.897L145.208,377.399L144.311,378.296z"/>
	
		<rect x="134.158" y="360.128" transform="matrix(0.7071 -0.7071 0.7071 0.7071 -220.6511 203.062)" fill="#00CEA6" width="1.269" height="15.506"/>
	<path fill="#008A95" d="M159.786,362.821l223.485,223.485c0.124,0.124,0.286,0.186,0.448,0.186c0.162,0,0.325-0.062,0.448-0.186
		c0.248-0.248,0.248-0.649,0-0.897L160.683,361.924L159.786,362.821z"/>
	<path fill="#008A95" d="M157.096,360.13L0.186,517.039c-0.248,0.248-0.248,0.649,0,0.897c0.124,0.124,0.286,0.186,0.448,0.186
		s0.325-0.062,0.448-0.186l156.912-156.911L157.096,360.13z"/>
	<path fill="#00CEA6" d="M126.17,360.156L76.546,409.78c-0.248,0.248-0.248,0.649,0,0.897c0.124,0.124,0.286,0.186,0.448,0.186
		s0.325-0.062,0.448-0.186l55.752-55.752l-6.156,6.1L126.17,360.156z"/>
	<path fill="#008A95" d="M95.329,360.145l-49.373,49.373c-0.248,0.248-0.248,0.649,0,0.897c0.124,0.124,0.286,0.186,0.448,0.186
		c0.162,0,0.325-0.062,0.448-0.186L99.768,357.5v0l-3.557,3.525L95.329,360.145z"/>
	<path fill="#008A95" d="M241.927,205.803c-0.124-0.124-0.286-0.186-0.448-0.186s-0.325,0.062-0.448,0.186l-81.242,81.241
		l0.897,0.897l81.242-81.241C242.175,206.452,242.175,206.051,241.927,205.803z"/>
	<path fill="#00CEA6" d="M145.208,272.464L416.589,1.083c0.248-0.248,0.248-0.649,0-0.897C416.465,0.062,416.303,0,416.141,0
		s-0.325,0.062-0.448,0.186L144.311,271.567L145.208,272.464z"/>
	
		<rect x="127.005" y="281.362" transform="matrix(0.7071 -0.7071 0.7071 0.7071 -159.9255 177.8954)" fill="#00CEA6" width="15.545" height="1.269"/>
	<polygon fill="#008A95" points="159.517,290.361 158.021,288.865 159.527,290.376 	"/>
	<path fill="#008A95" d="M101.222,232.066c-0.124-0.124-0.286-0.186-0.448-0.186c-0.162,0-0.325,0.062-0.448,0.186
		c-0.248,0.248-0.248,0.649,0,0.897l56.773,56.772l0.897-0.897L101.222,232.066z"/>
	<path fill="#00CEA6" d="M126.142,289.735l0.897-0.897l-33.952-33.952c-0.124-0.124-0.286-0.186-0.448-0.186
		c-0.162,0-0.325,0.062-0.448,0.186c-0.248,0.248-0.248,0.649,0,0.897L126.142,289.735z"/>
	<polygon fill="#00CEA6" points="124.348,291.529 113.084,302.794 118.286,307.995 127.039,299.241 152.793,324.995 
		144.039,333.749 149.241,338.95 163.196,324.995 130.759,292.558 128.562,290.361 127.039,288.838 126.142,289.735 	"/>
	<polygon fill="#008A95" enable-background="new    " points="168.924,350.095 194.024,324.995 161.708,292.565 159.527,290.376 
		158.021,288.865 157.994,288.838 157.994,288.838 157.097,289.735 154.275,292.558 144.039,302.794 149.241,307.995 
		157.994,299.241 183.621,324.995 157.994,350.622 132.241,324.995 140.994,316.241 135.793,311.04 127.039,319.793 98.896,291.534 
		97.106,289.737 96.211,288.838 94.014,291.036 60.054,324.995 73.762,338.654 75.203,340.09 75.205,340.088 76.473,341.356 
		78.255,343.132 93.117,357.941 95.329,360.145 96.211,361.025 99.768,357.5 101.973,355.315 110.166,347.196 104.965,341.868 
		96.211,350.622 83.457,337.93 82.172,336.652 82.172,336.653 81.89,336.371 81.658,336.14 80.759,335.246 78.96,333.456 
		70.457,324.995 96.211,299.241 121.838,324.995 113.084,333.749 118.286,338.95 127.039,330.196 153.345,356.394 157.096,360.13 
		157.994,361.025 	"/>
	<polygon fill="#00CEA6" points="93.701,327.686 123.701,357.686 126.17,360.156 127.039,361.025 133.195,354.925 135.405,352.735 
		140.994,347.196 135.793,341.868 127.039,350.622 101.413,324.995 110.166,316.241 104.965,311.04 93.207,322.798 91.01,324.995 
		91.907,325.892 	"/>
	<path fill="#008A95" d="M420.733,320.555v-7.866h-9.515v-9.261h-8.754v9.261h-6.09v7.866h5.836v16.492
		c0,9.007,2.791,13.448,13.321,13.448h3.933v-8.881h-3.045c-4.313,0-5.075-1.649-5.075-5.455v-15.604H420.733z"/>
	<rect x="428.471" y="298.48" fill="#008A95" width="9.261" height="8.754"/>
	<rect x="428.471" y="312.689" fill="#008A95" width="9.261" height="37.679"/>
	<path fill="#008A95" d="M461.837,343.898c-4.948,0-7.866-2.791-8.5-7.866l-8.373,2.157c1.015,6.47,5.709,13.575,17.127,13.575
		c10.784,0,15.351-6.47,15.351-11.798c0-5.455-2.157-9.134-11.418-11.798c-9.895-2.791-11.291-3.299-11.291-5.455
		c0-1.903,2.157-3.425,5.963-3.425c5.075,0,6.978,2.664,8.119,5.836l7.739-2.41c-1.903-6.343-6.597-11.037-15.858-11.037
		s-14.209,5.709-14.209,11.545c0,5.836,4.44,8.754,12.687,11.164c7.739,2.157,10.149,2.664,10.149,5.328
		C469.322,342.376,466.404,343.898,461.837,343.898z"/>
	<path fill="#008A95" d="M500.023,351.51c7.866,0,12.433-3.806,15.604-8.373l-6.47-5.709c-1.903,2.664-4.44,5.963-9.261,5.963
		c-5.075,0-7.992-3.172-8.373-9.007h25.373v-2.791c-0.127-12.306-7.612-19.918-17.381-19.918c-9.769,0-17.381,7.739-17.381,19.918
		C482.135,343.771,489.62,351.51,500.023,351.51z M499.135,319.667c4.948,0,7.866,2.918,8.373,7.739h-16.366
		C491.523,323.219,494.441,319.667,499.135,319.667z"/>
	<polygon fill="#008A95" points="241.218,341.487 219.27,341.487 219.27,329.181 239.188,329.181 239.188,320.681 219.27,320.681 
		219.27,309.517 241.218,309.517 241.218,300.637 209.629,300.637 209.629,350.368 241.218,350.368 	"/>
	<polygon fill="#008A95" points="255.935,350.368 264.942,336.92 265.069,336.92 274.076,350.368 283.972,350.368 270.778,330.958 
		283.084,312.689 273.569,312.689 265.069,325.376 264.942,325.376 256.442,312.689 246.8,312.689 259.106,330.958 246.039,350.368 
			"/>
	<path fill="#008A95" d="M289.046,312.689v53.791h9.261v-19.664h0.127c0,0,2.664,4.694,9.895,4.694
		c8.754,0,16.619-7.104,16.619-19.918c0-12.94-8.373-19.918-16.746-19.918c-7.358,0-10.149,4.694-10.149,4.694h-0.127v-3.679
		H289.046z M306.681,320.047c5.075,0,9.007,3.806,9.007,11.545c0,7.739-3.933,11.545-9.007,11.545s-9.008-3.806-9.008-11.545
		C297.673,323.726,301.606,320.047,306.681,320.047z"/>
	<path fill="#008A95" d="M364.277,331.592c-0.127-12.306-7.612-19.918-17.38-19.918c-9.769,0-17.38,7.739-17.38,19.918
		c0,12.179,7.485,19.918,17.888,19.918c7.866,0,12.433-3.806,15.604-8.373l-6.47-5.709c-1.903,2.664-4.44,5.963-9.261,5.963
		c-5.075,0-7.993-3.172-8.373-9.007h25.373V331.592z M338.904,327.405c0.381-4.187,3.299-7.739,7.993-7.739
		c4.948,0,7.866,2.918,8.373,7.739H338.904z"/>
	<path fill="#008A95" d="M370.494,312.689v37.679h9.261v-20.679c0-6.09,2.537-8.627,6.47-8.627c0.888,0,1.903,0.254,2.918,0.507
		l1.395-9.007c-1.142-0.381-2.284-0.634-3.425-0.634c-3.298,0-6.343,1.903-7.739,4.694h-0.127v-3.933H370.494z"/>
</g>
</svg>
