<?xml version="1.0" encoding="utf-8"?>
<!-- Generator: Adobe Illustrator 17.0.0, SVG Export Plug-In . SVG Version: 6.00 Build 0)  -->
<!DOCTYPE svg PUBLIC "-//W3C//DTD SVG 1.1//EN" "http://www.w3.org/Graphics/SVG/1.1/DTD/svg11.dtd">
<svg version="1.1" id="Layer_1" xmlns="http://www.w3.org/2000/svg" xmlns:xlink="http://www.w3.org/1999/xlink" x="0px" y="0px"
	 width="150px" height="78.436px" viewBox="0 0 150 78.436" enable-background="new 0 0 150 78.436" xml:space="preserve" preserveAspectRatio="none">
<path fill="none" stroke="#E0E0E0" stroke-miterlimit="10" d="M-0.181,4.051c6.265,0,12.53,0.875,18.795,2.37
	s12.53,3.608,18.795,5.722s12.53,4.227,18.795,5.722s12.53,2.37,18.795,2.37s12.53-0.875,18.795-2.37
	c6.265-1.495,12.53-3.608,18.795-5.722s12.53-4.227,18.795-5.722c6.265-1.495,12.53-2.37,18.795-2.37"/>
<path fill="none" stroke="#E0E0E0" stroke-miterlimit="10" d="M-0.181,11.724c6.265,0,12.53,0.875,18.795,2.37
	s12.53,3.608,18.795,5.722s12.53,4.227,18.795,5.722s12.53,2.37,18.795,2.37s12.53-0.875,18.795-2.37
	c6.265-1.495,12.53-3.608,18.795-5.722s12.53-4.227,18.795-5.722c6.265-1.495,12.53-2.37,18.795-2.37"/>
<path fill="none" stroke="#E0E0E0" stroke-miterlimit="10" d="M-0.181,19.398c6.265,0,12.53,0.875,18.795,2.37
	s12.53,3.608,18.795,5.722s12.53,4.227,18.795,5.722s12.53,2.37,18.795,2.37s12.53-0.875,18.795-2.37
	c6.265-1.495,12.53-3.608,18.795-5.722s12.53-4.227,18.795-5.722c6.265-1.495,12.53-2.37,18.795-2.37"/>
<path fill="none" stroke="#E0E0E0" stroke-miterlimit="10" d="M-0.181,27.071c6.265,0,12.53,0.875,18.795,2.37
	c6.265,1.495,12.53,3.608,18.795,5.722s12.53,4.227,18.795,5.722s12.53,2.37,18.795,2.37s12.53-0.875,18.795-2.37
	s12.53-3.608,18.795-5.722s12.53-4.227,18.795-5.722c6.265-1.495,12.53-2.37,18.795-2.37"/>
<path fill="none" stroke="#E0E0E0" stroke-miterlimit="10" d="M-0.181,34.745c6.265,0,12.53,0.875,18.795,2.37
	s12.53,3.608,18.795,5.722s12.53,4.227,18.795,5.722s12.53,2.37,18.795,2.37s12.53-0.875,18.795-2.37s12.53-3.608,18.795-5.722
	s12.53-4.227,18.795-5.722c6.265-1.495,12.53-2.37,18.795-2.37"/>
<path fill="none" stroke="#E0E0E0" stroke-miterlimit="10" d="M-0.181,42.418c6.265,0,12.53,0.875,18.795,2.37
	s12.53,3.608,18.795,5.722s12.53,4.227,18.795,5.722s12.53,2.37,18.795,2.37s12.53-0.875,18.795-2.37s12.53-3.608,18.795-5.722
	s12.53-4.227,18.795-5.722c6.265-1.495,12.53-2.37,18.795-2.37"/>
<path fill="none" stroke="#E0E0E0" stroke-miterlimit="10" d="M-0.181,50.092c6.265,0,12.53,0.875,18.795,2.37
	s12.53,3.608,18.795,5.722s12.53,4.227,18.795,5.722c6.265,1.495,12.53,2.37,18.795,2.37s12.53-0.875,18.795-2.37
	s12.53-3.608,18.795-5.722s12.53-4.227,18.795-5.722c6.265-1.495,12.53-2.37,18.795-2.37"/>
<path fill="none" stroke="#E0E0E0" stroke-miterlimit="10" d="M-0.181,57.765c6.265,0,12.53,0.875,18.795,2.37
	s12.53,3.608,18.795,5.722c6.265,2.114,12.53,4.227,18.795,5.722s12.53,2.37,18.795,2.37s12.53-0.875,18.795-2.37
	s12.53-3.608,18.795-5.722s12.53-4.227,18.795-5.722c6.265-1.495,12.53-2.37,18.795-2.37"/>
</svg>
