<svg enable-background="new 0 0 395.965 145.324" height="145.324" viewBox="0 0 395.965 145.324" width="395.965" xmlns="http://www.w3.org/2000/svg"><g fill="#fff"><path d="m37.834 57.695c3.733-1.422 7.048-3.535 9.852-6.281 2.853-2.694 5.089-5.912 6.648-9.568 1.559-3.657 2.323-7.558 2.271-11.593v-.085c.053-4.035-.712-7.935-2.271-11.594-1.56-3.658-3.797-6.904-6.647-9.65-2.852-2.74-6.193-4.84-9.933-6.242-3.746-1.399-7.717-2.109-11.802-2.109h-10.75c-1.763 0-3.458.34-5.039 1.009-1.581.669-2.965 1.605-4.113 2.78-1.15 1.175-2.072 2.572-2.742 4.154-.67 1.578-1.009 3.274-1.009 5.041v46.287h23.813c4.04.001 7.984-.722 11.722-2.149zm-9.734-28.878c.374-.375.828-.565 1.352-.565.521 0 .975.19 1.351.565.375.378.565.832.565 1.351 0 .521-.19.976-.566 1.351-.374.375-.828.565-1.35.565-.524 0-.978-.19-1.352-.566-.375-.372-.565-.826-.565-1.35 0-.521.19-.975.565-1.351z"/><path d="m108.254 38.388-2.341-3.01.062-.077c1.507-1.885 2.637-3.967 3.358-6.19.725-2.224 1.065-4.442 1.013-6.594v-.083c0-1.501-.15-3.041-.447-4.577-.294-1.523-.798-3.034-1.497-4.49-1.076-2.256-2.505-4.243-4.246-5.904-1.743-1.662-3.636-2.971-5.626-3.889-1.993-.913-4.012-1.567-5.997-1.944-1.995-.377-4.042-.567-6.083-.567h-13.519c-1.762 0-3.458.34-5.039 1.009-1.579.67-2.976 1.604-4.155 2.78-1.18 1.183-2.116 2.581-2.782 4.155-.667 1.578-1.006 3.274-1.006 5.041v32.325c0 1.768.339 3.463 1.006 5.039.667 1.578 1.604 2.977 2.782 4.154 1.178 1.178 2.575 2.114 4.155 2.784 1.572.668 3.268 1.006 5.039 1.006 2.731 0 5.214-.772 7.379-2.296 2.169-1.526 3.756-3.522 4.718-5.929l.081-.203 2.66 3.429c1.283 1.605 2.844 2.854 4.637 3.709 1.792.856 3.679 1.29 5.605 1.29 1.397 0 2.78-.23 4.112-.686 1.335-.452 2.639-1.144 3.874-2.058 1.39-1.124 2.516-2.454 3.345-3.95.83-1.498 1.346-3.085 1.533-4.717.186-1.629.063-3.299-.363-4.961-.43-1.659-1.19-3.205-2.258-4.596zm-21.23-14.564c-.347.349-.786.525-1.308.525-1.271 0-1.916-.645-1.916-1.916 0-.521.176-.961.522-1.309.35-.35.818-.526 1.394-.526.521 0 .961.177 1.309.526.349.347.525.787.525 1.309.001.577-.176 1.046-.526 1.391z"/><path d="m163.293 51.9c.67-1.576 1.009-3.271 1.009-5.039 0-1.872-.352-3.608-1.048-5.162-.688-1.534-1.652-2.933-2.868-4.158h-20.291c-.118.413-.327.758-.621 1.026-.32.291-.719.438-1.183.438-.523 0-.978-.19-1.352-.566-.375-.371-.565-.825-.565-1.35 0-.523.19-.977.566-1.351.375-.375.829-.565 1.351-.565 1.061 0 1.672.492 1.817 1.465h20.136c1.18-1.987 1.777-4.191 1.777-6.551 0-1.178-.148-2.317-.441-3.387-.272-.99-.651-1.944-1.128-2.841h-20.357c-.117.413-.326.759-.621 1.027-.319.291-.717.438-1.183.438-.521 0-.974-.176-1.348-.522-.378-.345-.569-.813-.569-1.394 0-.525.191-.968.569-1.314.373-.345.826-.52 1.348-.52 1.059 0 1.67.466 1.817 1.385h19.952c1.211-1.22 2.19-2.634 2.911-4.204.721-1.577 1.087-3.326 1.087-5.199 0-1.763-.34-3.459-1.009-5.041-.671-1.58-1.608-2.978-2.783-4.152-1.175-1.176-2.572-2.112-4.152-2.783-1.582-.669-3.278-1.009-5.039-1.009h-23.208c-1.763 0-3.458.34-5.039 1.009-1.581.67-2.979 1.607-4.155 2.783-1.177 1.177-2.113 2.574-2.783 4.152-.668 1.573-1.006 3.27-1.006 5.041v46.287h36.435c1.767 0 3.462-.339 5.039-1.007 1.58-.671 2.978-1.607 4.152-2.783 1.174-1.172 2.111-2.571 2.783-4.153z"/><path d="m178.695 51.136c.481 1.34 1.146 2.562 1.975 3.63.829 1.069 1.793 2.006 2.865 2.782 1.072.777 2.252 1.374 3.507 1.773 2.541.816 5.338.826 8.188-.119 2.515-.857 4.603-2.404 6.207-4.6l.101-.138.101.138c1.605 2.195 3.695 3.743 6.212 4.6 2.845.945 5.641.936 8.186.119 1.256-.4 2.436-.997 3.507-1.773 1.07-.776 2.034-1.713 2.865-2.782.828-1.07 1.492-2.292 1.976-3.631l11.48-33.464c.589-1.661.819-3.37.685-5.082-.134-1.714-.567-3.342-1.289-4.839-.724-1.498-1.727-2.841-2.985-3.993-1.257-1.149-2.735-2.031-4.395-2.62-1.554-.535-3.116-.784-4.636-.728-1.522.054-2.986.366-4.352.928-1.367.563-2.644 1.351-3.795 2.341-1.129.972-2.077 2.127-2.821 3.435.901 1.13 1.604 2.463 2.087 3.964l.602 1.812c.053-.017.11-.024.175-.024.576 0 1.045.191 1.394.569.347.376.522.829.522 1.347 0 .517-.176.971-.522 1.347-.349.378-.817.569-1.394.569-.523 0-.978-.19-1.352-.566-.375-.375-.565-.829-.565-1.35 0-.665.32-1.204.951-1.603l-.62-1.859c-.374-1.283-.996-2.474-1.852-3.544-1.499-2.089-3.588-3.607-6.212-4.519-1.393-.427-2.724-.645-3.951-.645-2.031 0-3.957.46-5.723 1.368-1.754.906-3.235 2.142-4.405 3.673l-.082.108c-.828 1.1-1.434 2.295-1.802 3.554l-.699 1.866c.63.399.949.938.949 1.601 0 .519-.19.973-.565 1.35-.376.376-.83.566-1.351.566s-.977-.19-1.353-.565c-.374-.377-.563-.831-.563-1.351s.189-.974.563-1.35c.376-.376.831-.566 1.353-.566.083 0 .164.013.248.039l.609-1.906c.485-1.403 1.192-2.715 2.103-3.901-.723-1.257-1.621-2.363-2.677-3.295-1.153-1.019-2.443-1.819-3.832-2.381-1.392-.562-2.885-.888-4.439-.968-1.541-.08-3.118.149-4.676.686-1.714.59-3.205 1.471-4.434 2.619-1.228 1.147-2.218 2.49-2.943 3.994-.725 1.503-1.159 3.132-1.29 4.839-.136 1.71.095 3.42.684 5.081z"/><path d="m48.211 95.96c-.806-1.77-1.894-3.43-3.234-4.934l-.731-.729c-1.233-1.234-2.513-2.242-3.802-2.994-1.282-.749-2.593-1.432-3.896-2.029-2.118-.847-4.322-1.521-6.548-2.006-.302.743-.875 1.119-1.707 1.119-.523 0-.978-.191-1.351-.566-.375-.373-.566-.827-.566-1.35 0-.521.191-.975.566-1.351.378-.375.832-.565 1.351-.565s.973.19 1.35.565c.371.371.562.819.566 1.332 2.345.486 4.592 1.166 6.681 2.021 1.364.601 2.739 1.314 4.089 2.125 1.36.817 2.684 1.865 3.934 3.114.27.269.49.51.658.718l1.042-.966c1.695-2.337 2.563-4.942 2.563-7.726 0-1.871-.421-3.729-1.25-5.524-.831-1.791-2.092-3.323-3.746-4.553-2.577-1.934-5.512-3.503-8.723-4.665-3.202-1.156-6.653-1.743-10.258-1.743-2.902 0-5.711.437-8.348 1.298-2.634.859-5.113 2.194-7.372 3.969-1.129.914-2.178 1.937-3.116 3.036s-1.769 2.363-2.467 3.76c-.697 1.338-1.256 2.795-1.659 4.334-.403 1.528-.608 3.119-.608 4.73v.245c0 1.237.137 2.6.407 4.05.265 1.442.753 2.883 1.453 4.281.216.487.447.949.69 1.377.255.456.507.881.77 1.3.644 1.019 1.512 2.022 2.582 2.984 1.233 1.181 2.514 2.162 3.808 2.917 1.293.755 2.604 1.41 3.894 1.947 1.008.427 2.043.78 3.078 1.053 1.078.286 2.193.568 3.066.786.302-.741.875-1.116 1.705-1.116.519 0 .973.19 1.35.565.378.378.569.832.569 1.351 0 .521-.191.976-.569 1.352-.373.375-.827.565-1.35.565s-.977-.19-1.351-.566c-.371-.369-.562-.817-.565-1.333-1.055-.265-2.091-.545-3.084-.833-1.032-.299-2.105-.67-3.188-1.103-1.299-.54-2.646-1.199-4.006-1.962-1.36-.762-2.684-1.755-3.934-2.951-.941-.942-1.82-1.975-2.615-3.071l-.874.872c-1.174 1.226-2.056 2.608-2.617 4.107-.563 1.503-.848 3.049-.848 4.597 0 1.714.326 3.383.97 4.961.64 1.579 1.642 3.002 2.98 4.229 2.798 2.693 6.101 4.864 9.818 6.452 3.713 1.587 7.724 2.392 11.92 2.392h.163c2.896 0 5.774-.437 8.553-1.297 2.765-.859 5.367-2.249 7.736-4.131 2.364-1.884 4.27-4.28 5.663-7.124 1.397-2.789 2.105-5.811 2.105-8.982v-.163c0-1.24-.123-2.576-.364-3.969-.241-1.39-.689-2.804-1.333-4.202z"/><path d="m94.238 68.333c-1.879-.913-3.965-1.649-6.201-2.188-2.242-.539-4.602-.812-7.016-.812h-.08c-4.141 0-8.069.845-11.673 2.512-3.603 1.668-6.741 3.905-9.326 6.65-2.584 2.799-4.603 6.032-6.002 9.609-1.397 3.578-2.106 7.384-2.106 11.313v.161c0 3.878.695 7.671 2.067 11.274 1.373 3.605 3.378 6.851 5.96 9.649 2.581 2.797 5.758 5.061 9.446 6.729 3.686 1.669 7.682 2.516 11.877 2.516 2.363 0 4.683-.246 6.896-.732 2.208-.484 4.28-1.193 6.158-2.107 1.88-.912 3.544-1.921 4.946-2.997 1.409-1.086 2.611-2.098 3.572-3.007 1.283-1.227 2.273-2.651 2.943-4.232.667-1.576 1.02-3.218 1.05-4.88.025-1.662-.26-3.318-.848-4.922-.589-1.604-1.511-3.069-2.741-4.353-.908-.961-2.011-1.797-3.28-2.487h-16.796c-.148.973-.759 1.465-1.82 1.465-.52 0-.975-.19-1.351-.565-.376-.374-.566-.829-.566-1.351 0-.521.19-.975.566-1.351.376-.375.831-.565 1.351-.565.464 0 .863.148 1.183.44.293.266.503.611.624 1.026h17.62c.44-.277.828-.537 1.184-.792.368-.264.717-.585 1.044-.964 1.284-1.23 2.274-2.655 2.944-4.233.668-1.581 1.035-3.211 1.09-4.843.051-1.632-.22-3.273-.808-4.878-.59-1.608-1.512-3.073-2.741-4.354-1.181-1.234-2.546-2.449-4.057-3.61-1.501-1.154-3.22-2.204-5.109-3.121z"/><path d="m157.834 69.694c-1.182-1.179-2.579-2.114-4.152-2.779-1.578-.67-3.274-1.009-5.041-1.009-1.503 0-2.941.244-4.274.725-1.338.482-2.559 1.146-3.631 1.976-1.07.831-2.02 1.85-2.822 3.025-.803 1.177-1.398 2.474-1.77 3.854v5.247c1.027.146 1.548.759 1.548 1.821 0 .518-.191.973-.566 1.35-.376.376-.83.566-1.351.566-.579 0-1.048-.191-1.393-.57-.347-.373-.523-.826-.523-1.346 0-.466.146-.877.436-1.222.268-.321.614-.521 1.029-.597v-5.201c-.325-1.286-.855-2.515-1.568-3.621-.778-1.207-1.729-2.266-2.822-3.146-1.098-.882-2.359-1.588-3.751-2.098-1.393-.507-2.857-.765-4.354-.765-1.768 0-3.463.339-5.039 1.009-1.575.665-2.973 1.6-4.155 2.78-1.183 1.186-2.118 2.584-2.78 4.155-.67 1.576-1.009 3.271-1.009 5.039v33.304c0 1.768.339 3.463 1.009 5.039.663 1.575 1.599 2.973 2.781 4.154 1.178 1.18 2.576 2.116 4.154 2.783 1.573.668 3.269 1.007 5.039 1.007 1.495 0 2.96-.258 4.354-.766 1.385-.505 2.647-1.21 3.751-2.098 1.093-.879 2.043-1.938 2.822-3.144.704-1.092 1.229-2.303 1.56-3.602l.013-.051-.004-5.184c-.415-.12-.761-.345-1.029-.667-.289-.345-.436-.755-.436-1.22 0-.522.191-.965.569-1.313.374-.347.827-.522 1.347-.522.518 0 .971.176 1.347.522.378.351.569.793.569 1.313 0 1.062-.521 1.698-1.548 1.896v5.252c.372 1.381.968 2.664 1.77 3.813.806 1.154 1.756 2.173 2.825 3.027 1.074.859 2.296 1.537 3.629 2.016 1.336.48 2.774.725 4.274.725 1.77 0 3.466-.339 5.041-1.007 1.576-.667 2.974-1.604 4.152-2.783s2.114-2.577 2.783-4.154c.67-1.581 1.009-3.276 1.009-5.039v-33.299c0-1.763-.339-3.458-1.009-5.039-.669-1.574-1.605-2.973-2.784-4.156z"/><path d="m274.913 103.719-2.341-3.01.062-.077c1.504-1.879 2.634-3.961 3.357-6.188.725-2.221 1.066-4.44 1.013-6.596v-.083c0-1.5-.15-3.04-.446-4.578-.295-1.529-.799-3.039-1.495-4.488-1.073-2.253-2.503-4.24-4.248-5.906-1.751-1.668-3.643-2.975-5.624-3.886-1.985-.912-4.003-1.566-5.997-1.944-1.999-.377-4.046-.568-6.083-.568h-13.518c-1.768 0-3.464.339-5.041 1.007-1.577.67-2.975 1.605-4.155 2.783-1.177 1.179-2.112 2.576-2.78 4.154-.67 1.577-1.009 3.272-1.009 5.039v32.326c0 1.769.339 3.465 1.009 5.041.67 1.582 1.605 2.979 2.78 4.152 1.179 1.179 2.576 2.115 4.155 2.783 1.576.67 3.273 1.009 5.041 1.009 2.728 0 5.209-.773 7.377-2.298 2.171-1.529 3.759-3.524 4.72-5.93l.081-.203 2.658 3.432c1.291 1.609 2.852 2.857 4.636 3.706 1.793.858 3.68 1.293 5.606 1.293 1.391 0 2.775-.23 4.114-.686 1.337-.456 2.64-1.149 3.872-2.06 1.39-1.12 2.516-2.45 3.344-3.949.829-1.495 1.345-3.082 1.533-4.718.188-1.632.065-3.301-.363-4.962-.431-1.659-1.191-3.206-2.258-4.595zm-21.228-14.563c-.349.349-.789.525-1.31.525-1.271 0-1.916-.645-1.916-1.916 0-.521.177-.961.525-1.311.35-.349.817-.525 1.391-.525.521 0 .961.177 1.311.525.348.348.523.789.523 1.311 0 .577-.177 1.045-.524 1.391z"/><path d="m330.129 69.694c-1.181-1.178-2.578-2.113-4.152-2.779-1.579-.67-3.275-1.009-5.042-1.009-2.942 0-5.574.867-7.821 2.578-2.229 1.7-3.771 3.904-4.579 6.552l3.646 4.517c.884-.35 1.646-.159 2.255.56.293.409.425.874.398 1.391-.033.527-.283.97-.744 1.314-.396.342-.864.493-1.392.431-.522-.056-.935-.293-1.227-.704-.666-.829-.688-1.648-.06-2.434l-3.356-4.154-4.316-5.292c-1.179-1.446-2.643-2.613-4.354-3.47-1.712-.854-3.611-1.288-5.645-1.288-1.769 0-3.465.339-5.041 1.009-1.577.666-2.974 1.602-4.153 2.78-1.179 1.18-2.115 2.578-2.782 4.155-.668 1.571-1.006 3.267-1.006 5.039v33.304c0 1.772.338 3.468 1.006 5.039.668 1.581 1.605 2.979 2.782 4.154 1.176 1.178 2.573 2.114 4.153 2.783 1.573.668 3.27 1.007 5.041 1.007 1.494 0 2.959-.258 4.355-.766 1.386-.505 2.647-1.211 3.75-2.098 1.096-.882 2.046-1.939 2.823-3.144.636-.988 1.125-2.071 1.455-3.222l-3.705-4.417c-.328.141-.692.174-1.089.092-.434-.086-.802-.306-1.09-.652-.349-.462-.493-.958-.435-1.479.057-.524.293-.937.702-1.227.453-.342.936-.489 1.431-.432.489.06.914.293 1.262.694.291.354.424.766.395 1.229-.027.425-.165.806-.412 1.134l7.699 9.481v.081c1.231 1.436 2.715 2.591 4.411 3.434 1.708.856 3.605 1.29 5.642 1.29 1.77 0 3.466-.339 5.042-1.007 1.578-.669 2.976-1.605 4.152-2.783 1.178-1.178 2.113-2.575 2.783-4.154.669-1.583 1.009-3.278 1.009-5.039v-33.303c0-1.761-.34-3.456-1.009-5.039-.668-1.576-1.604-2.975-2.782-4.156z"/><path d="m388.099 74.737c-1.288-1.395-2.747-2.703-4.337-3.889-1.592-1.188-3.351-2.195-5.227-2.998-3.771-1.67-7.835-2.517-12.084-2.517-4.251 0-8.315.847-12.081 2.516-2.8 1.239-5.322 2.875-7.498 4.862-2.181 1.991-4.022 4.229-5.474 6.65-2.96 4.952-4.461 10.383-4.461 16.14v.08c0 3.822.669 7.547 1.987 11.07 1.314 3.519 3.293 6.779 5.88 9.692 2.689 2.904 5.908 5.195 9.565 6.808 3.716 1.723 7.779 2.596 12.081 2.596 4.301 0 8.365-.873 12.08-2.595 2.802-1.24 5.325-2.863 7.502-4.824 2.177-1.962 4.019-4.186 5.472-6.609 2.959-4.948 4.46-10.378 4.46-16.138v-.08c0-3.822-.668-7.548-1.986-11.072-1.321-3.526-3.299-6.787-5.879-9.692zm-20.296 22.114c-.377.376-.832.566-1.352.566-.522 0-.977-.19-1.351-.566-.375-.375-.565-.829-.565-1.35 0-.522.19-.977.566-1.351.373-.375.827-.565 1.35-.565.52 0 .975.19 1.351.565.376.377.566.831.566 1.351 0 .518-.19.972-.565 1.35z"/><path d="m215.763 74.737c-1.288-1.395-2.747-2.703-4.337-3.889-1.592-1.188-3.351-2.195-5.227-2.998-3.771-1.67-7.835-2.517-12.084-2.517-4.251 0-8.315.847-12.081 2.516-2.8 1.239-5.322 2.875-7.498 4.862-2.181 1.991-4.022 4.229-5.474 6.65-2.96 4.952-4.461 10.383-4.461 16.14v.08c0 3.822.669 7.547 1.987 11.07 1.314 3.519 3.293 6.779 5.88 9.692 2.689 2.904 5.908 5.195 9.565 6.808 3.716 1.723 7.779 2.596 12.081 2.596 4.301 0 8.365-.873 12.08-2.595 2.802-1.24 5.325-2.863 7.502-4.824 2.177-1.962 4.019-4.186 5.472-6.609 2.959-4.948 4.46-10.378 4.46-16.138v-.08c0-3.822-.668-7.548-1.986-11.072-1.321-3.526-3.299-6.787-5.879-9.692zm-20.296 22.114c-.377.376-.832.566-1.352.566-.522 0-.977-.19-1.351-.566-.375-.375-.565-.829-.565-1.35 0-.522.19-.977.566-1.351.373-.375.827-.565 1.35-.565.52 0 .975.19 1.351.565.376.377.566.831.566 1.351 0 .518-.19.972-.565 1.35z"/></g></svg>